<?xml version="1.0" standalone="no"?>
<!DOCTYPE svg PUBLIC "-//W3C//DTD SVG 20010904//EN"
 "http://www.w3.org/TR/2001/REC-SVG-20010904/DTD/svg10.dtd">
<svg version="1.0" xmlns="http://www.w3.org/2000/svg"
 width="1220.000000pt" height="1228.000000pt" viewBox="0 0 1220.000000 1228.000000"
 preserveAspectRatio="xMidYMid meet">
<metadata>
Created by potrace 1.16, written by Peter Selinger 2001-2019
</metadata>
<g transform="translate(0.000000,1228.000000) scale(0.100000,-0.100000)"
fill="#000000" stroke="none">
<path d="M1783 8953 c2 -5 69 -118 149 -253 80 -135 221 -373 313 -530 93
-157 240 -406 328 -555 88 -148 212 -358 275 -465 63 -107 134 -226 157 -265
23 -38 134 -225 245 -415 228 -387 715 -1212 824 -1395 40 -66 126 -211 191
-322 66 -112 122 -203 125 -203 3 0 16 19 28 43 11 23 39 74 60 112 21 39 55
99 74 135 272 495 348 635 348 643 0 5 -131 232 -291 505 -160 274 -301 513
-312 532 -11 19 -30 51 -42 70 -18 28 -167 284 -182 312 -1 3 192 7 429 7 238
0 609 4 823 7 l390 7 245 439 c135 241 246 446 248 454 3 12 -104 14 -805 14
-444 0 -1048 3 -1341 7 l-532 6 -59 96 c-33 52 -57 99 -55 103 3 5 1374 8
3046 8 1673 0 3042 1 3043 2 5 8 435 763 467 822 21 38 38 73 38 77 0 5 -1820
9 -4116 9 -2263 0 -4113 -3 -4111 -7z"/>
<path d="M6490 7835 c-4 -5 -35 -59 -68 -120 -33 -60 -80 -146 -105 -190 -74
-134 -91 -163 -202 -365 -59 -107 -126 -229 -150 -270 -23 -41 -91 -163 -150
-270 -59 -107 -119 -215 -133 -240 -128 -232 -408 -736 -502 -905 -65 -115
-224 -403 -355 -640 -131 -236 -249 -451 -263 -476 l-25 -46 28 -49 c68 -118
245 -433 329 -585 140 -253 151 -269 162 -256 7 6 34 50 61 97 51 88 211 360
563 960 112 190 229 390 261 445 33 55 63 107 68 115 8 12 42 14 213 12 240
-3 508 -13 508 -19 0 -4 -143 -261 -323 -583 -11 -19 -41 -73 -67 -120 -173
-310 -670 -1200 -710 -1270 -158 -281 -173 -311 -164 -329 21 -44 529 -921
534 -921 3 0 41 64 84 143 96 173 986 1757 1136 2022 59 105 118 210 132 235
14 25 107 191 208 370 101 179 200 362 221 407 71 155 95 290 68 387 -12 45
-73 114 -124 142 -38 20 -45 34 -17 34 42 0 182 44 257 81 125 61 264 183 341
298 45 69 1092 1906 1089 1911 -2 3 -247 3 -546 0 l-542 -5 -17 -30 c-9 -16
-74 -136 -144 -265 -71 -129 -168 -307 -216 -395 -49 -88 -208 -378 -354 -645
l-265 -485 -388 3 c-213 2 -389 5 -391 7 -5 4 17 44 158 290 56 99 213 374
347 610 135 237 262 459 283 495 157 270 226 395 229 413 2 11 -1049 14 -1059
2z"/>
</g>
</svg>
